<?xml version="1.0" standalone="no"?>
<!DOCTYPE svg PUBLIC "-//W3C//DTD SVG 20010904//EN"
 "http://www.w3.org/TR/2001/REC-SVG-20010904/DTD/svg10.dtd">
<svg version="1.0" xmlns="http://www.w3.org/2000/svg"
 width="1024.000000pt" height="396.000000pt" viewBox="0 0 1024.000000 396.000000"
 preserveAspectRatio="xMidYMid meet">

<g transform="translate(0.000000,396.000000) scale(0.100000,-0.100000)"
fill="#000000" stroke="none">
<path d="M1800 2624 c-214 -56 -400 -230 -465 -436 -14 -43 -25 -83 -25 -89 0
-5 45 -9 105 -9 90 0 105 2 105 16 0 9 13 44 29 78 115 241 435 331 660 187
287 -185 287 -594 -1 -781 -154 -100 -371 -91 -520 21 -85 64 -135 136 -172
252 -5 15 -19 17 -106 17 -81 0 -100 -3 -100 -14 0 -8 11 -51 25 -94 66 -208
253 -382 470 -437 76 -19 232 -19 315 1 195 46 364 187 449 376 41 92 55 161
55 268 0 107 -14 176 -55 268 -85 189 -254 330 -449 376 -81 20 -247 19 -320
0z"/>
<path d="M6660 2624 c-232 -60 -421 -250 -480 -480 -40 -156 -19 -331 57 -477
57 -108 174 -222 283 -276 125 -60 191 -74 330 -69 132 6 206 27 312 89 143
84 264 246 302 402 l6 27 -102 0 -103 0 -27 -59 c-53 -113 -152 -199 -278
-241 -54 -19 -81 -21 -161 -18 -81 4 -107 10 -163 36 -88 41 -147 91 -196 164
-106 159 -106 357 0 516 49 73 108 123 196 164 56 26 82 32 163 36 80 3 107 1
161 -18 122 -41 224 -127 272 -230 l23 -49 104 -1 104 0 -7 32 c-10 51 -72
168 -120 227 -90 110 -224 194 -356 225 -81 20 -247 19 -320 0z"/>
<path d="M2910 1980 l0 -640 105 0 105 0 0 546 0 546 253 -5 c272 -5 307 -10
361 -57 45 -40 60 -79 54 -141 -6 -60 -39 -101 -108 -132 -38 -17 -71 -22
-203 -25 l-158 -4 3 -97 3 -96 160 1 c95 0 182 6 215 13 125 30 216 96 267
193 26 49 28 62 28 163 0 97 -3 116 -25 160 -48 97 -142 168 -267 200 -46 12
-131 15 -425 15 l-368 0 0 -640z"/>
<path d="M4190 2525 l0 -95 570 0 570 0 0 95 0 95 -570 0 -570 0 0 -95z"/>
<path d="M5640 1980 l0 -640 105 0 105 0 0 640 0 640 -105 0 -105 0 0 -640z"/>
<path d="M7816 1987 c-168 -348 -306 -636 -306 -640 0 -4 50 -6 112 -5 l111 3
240 498 c133 273 243 497 246 497 7 0 221 -440 221 -452 0 -5 -55 -8 -123 -8
l-122 0 -48 -95 -47 -95 220 0 219 0 85 -175 85 -175 111 0 c86 0 111 3 107
13 -2 6 -141 294 -308 640 l-303 627 -97 0 -96 0 -307 -633z"/>
<path d="M4660 1805 l0 -465 105 0 105 0 0 465 0 465 -105 0 -105 0 0 -465z"/>
</g>
</svg>
